<svg xmlns="http://www.w3.org/2000/svg" aria-hidden="true" style="position:absolute;width:0;height:0;overflow:hidden">
  <defs>
    <symbol id="icon-facebook" viewBox="0 0 28 28">
        <g opacity="0.8">
      
<path d="M17.0799 4.06023C17.2899 4.06023 17.4999 4.06023 17.9199 4.06023V7.21023C17.7099 7.21023 17.2899 7.21023 16.8699 7.21023C16.4499 7.21023 16.0299 7.21023 15.8199 7.42023C15.6099 7.63023 15.6099 7.84023 15.6099 8.33023C15.6099 8.75023 15.6099 9.03023 15.6099 9.45023H17.9199V12.1102H15.6099V23.6602H12.0399V12.0402H10.1499V9.38023H12.0399V8.47023C12.0399 6.93023 12.2499 5.81023 12.6699 5.32023C13.2999 4.41023 14.5599 3.99023 16.4499 3.99023C16.6599 4.06023 16.8699 4.06023 17.0799 4.06023Z" fill="white"/></g>
    </symbol>
    <symbol id="icon-instagram" viewBox="0 0 28 28">
    <g opacity="0.8">
<path d="M25.1279 9.41127C25.1142 8.47121 24.9401 7.5386 24.6067 6.65939C24.0233 5.15803 22.8354 3.97084 21.3315 3.38967C20.4621 3.06307 19.5428 2.88797 18.6124 2.86811C17.4158 2.81471 17.0364 2.7998 13.9988 2.7998C10.9612 2.7998 10.5719 2.7998 9.38397 2.86811C8.45478 2.88797 7.53554 3.06307 6.66606 3.38967C5.1622 3.97084 3.97304 5.15803 3.3909 6.65939C3.06375 7.52743 2.88712 8.44513 2.86971 9.37277C2.81622 10.5687 2.80005 10.9474 2.80005 13.9799C2.80005 17.0125 2.80005 17.3999 2.86971 18.5871C2.88837 19.516 3.06375 20.4325 3.3909 21.303C3.97428 22.8031 5.1622 23.9903 6.66731 24.5714C7.53306 24.9092 8.45229 25.1005 9.38521 25.1303C10.5831 25.1837 10.9625 25.1998 14.0001 25.1998C17.0376 25.1998 17.427 25.1998 18.6149 25.1303C19.5441 25.1116 20.4633 24.9365 21.334 24.6099C22.8379 24.0275 24.0258 22.8403 24.6092 21.3402C24.9363 20.4709 25.1117 19.5545 25.1304 18.6244C25.1839 17.4297 25.2001 17.051 25.2001 14.0172C25.1976 10.9847 25.1976 10.5997 25.1279 9.41127ZM13.9913 19.7147C10.8144 19.7147 8.24083 17.1453 8.24083 13.9737C8.24083 10.8021 10.8144 8.23278 13.9913 8.23278C17.1658 8.23278 19.7419 10.8021 19.7419 13.9737C19.7419 17.1453 17.1658 19.7147 13.9913 19.7147ZM19.9707 9.35911C19.2281 9.35911 18.6298 8.76056 18.6298 8.02043C18.6298 7.2803 19.2281 6.68174 19.9707 6.68174C20.7108 6.68174 21.3104 7.2803 21.3104 8.02043C21.3104 8.76056 20.7108 9.35911 19.9707 9.35911Z" fill="white"/>
<path d="M13.9931 17.4792C15.9281 17.4792 17.4966 15.9106 17.4966 13.9757C17.4966 12.0407 15.9281 10.4722 13.9931 10.4722C12.0582 10.4722 10.4896 12.0407 10.4896 13.9757C10.4896 15.9106 12.0582 17.4792 13.9931 17.4792Z" fill="white"/>
</g>
    </symbol>
    <symbol id="icon-youtube" viewBox="0 0 28 28">
    <g opacity="0.8">
<path fill-rule="evenodd" clip-rule="evenodd" d="M21.2101 5.24986C20.0201 5.17986 17.5701 5.10986 13.8601 5.10986H13.3701C9.8001 5.10986 7.42013 5.17986 6.23013 5.31986C4.62013 5.45986 3.5001 5.87986 2.8701 6.43986C2.3101 6.92986 1.89012 7.83986 1.75012 9.02986C1.68012 9.79986 1.61011 11.4099 1.61011 13.8599V14.2099C1.61011 16.5199 1.6801 18.1299 1.8201 18.8999C2.0301 20.0199 2.38013 20.8599 3.08013 21.3499C3.78013 21.9099 4.97012 22.2599 6.65012 22.3999C7.84012 22.4699 10.2901 22.5399 14.0001 22.5399H14.4901C18.0601 22.5399 20.4401 22.4699 21.6301 22.3299C23.2401 22.1899 24.3601 21.7699 24.9901 21.2099C25.5501 20.7199 25.9701 19.8099 26.1101 18.6199C26.1801 17.8499 26.2501 16.2399 26.2501 13.7899V13.4399C26.2501 11.1299 26.1801 9.51986 26.0401 8.74986C25.8301 7.62986 25.4801 6.78986 24.7801 6.29986C24.0801 5.73986 22.8901 5.38986 21.2101 5.24986ZM18.4801 13.8599L10.7801 18.4799V9.23986L18.4801 13.8599Z" fill="white"/>
</g>
    </symbol>
  </defs>
</svg>