
<svg aria-hidden="true" style="position:absolute;width:0;height:0;overflow:hidden" xmlns="http://www.w3.org/2000/svg">
    <defs>
        <symbol id="icon-logo" viewBox="0 0 274 32">
            <path fill="#121417" style="fill: var(--color1, #121417)" d="M9.615 23.314c-1.666 0-3.128-0.361-4.389-1.082-1.25-0.718-2.255-1.738-2.936-2.963l-0.020-0.039c-0.701-1.28-1.051-2.754-1.051-4.419 0-1.798 0.346-3.357 1.036-4.678 0.69-1.33 1.65-2.362 2.88-3.093s2.651-1.097 4.267-1.097c1.707 0 3.154 0.401 4.343 1.204 1.199 0.792 2.088 1.915 2.667 3.368s0.797 3.165 0.655 5.135h-3.642v-1.341c-0.011-1.787-0.325-3.093-0.945-3.916s-1.595-1.234-2.926-1.234c-1.504 0-2.621 0.468-3.352 1.402-0.731 0.925-1.097 2.281-1.097 4.069 0 1.666 0.366 2.956 1.097 3.87s1.798 1.371 3.2 1.371c0.904 0 1.681-0.198 2.331-0.594 0.66-0.407 1.169-0.99 1.524-1.752l3.627 1.097c-0.629 1.483-1.605 2.636-2.926 3.459-1.31 0.823-2.758 1.234-4.343 1.234zM3.947 15.65v-2.773h11.322v2.773h-11.322zM31.403 22.857v-7.924c0-0.518-0.035-1.093-0.107-1.722-0.077-0.672-0.255-1.285-0.518-1.85l0.015 0.037c-0.255-0.591-0.652-1.081-1.148-1.441l-0.010-0.007c-0.507-0.376-1.198-0.564-2.072-0.564-0.466 0-0.93 0.076-1.387 0.229s-0.873 0.416-1.25 0.792c-0.366 0.366-0.66 0.873-0.884 1.524-0.222 0.64-0.335 1.463-0.335 2.469l-2.179-0.93c0-1.402 0.27-2.671 0.808-3.81 0.549-1.138 1.352-2.042 2.408-2.712 1.058-0.681 2.357-1.021 3.901-1.021 1.219 0 2.225 0.203 3.017 0.61s1.423 0.925 1.89 1.554c0.468 0.629 0.814 1.3 1.036 2.011 0.224 0.712 0.366 1.387 0.427 2.027 0.072 0.629 0.107 1.143 0.107 1.539v9.189h-3.718zM19.989 22.857v-16.457h3.276v5.105h0.442v11.352h-3.718zM46.016 30.629c-0.914 0-1.794-0.142-2.636-0.427-0.865-0.297-1.613-0.716-2.269-1.245l0.014 0.011c-0.67-0.529-1.219-1.169-1.646-1.92l3.383-1.676c0.314 0.599 0.757 1.041 1.326 1.326 0.579 0.294 1.193 0.442 1.844 0.442 0.762 0 1.443-0.137 2.042-0.411 0.583-0.25 1.057-0.661 1.379-1.176l0.007-0.013c0.335-0.518 0.492-1.169 0.472-1.95v-4.678h0.457v-12.51h3.215v17.25c0 0.416-0.021 0.812-0.061 1.189-0.030 0.386-0.087 0.762-0.168 1.128-0.244 1.067-0.712 1.94-1.402 2.621-0.69 0.69-1.55 1.204-2.575 1.539-1.016 0.335-2.144 0.503-3.383 0.503zM45.696 23.314c-1.515 0-2.834-0.381-3.962-1.143s-2.002-1.798-2.621-3.109c-0.62-1.31-0.93-2.789-0.93-4.434 0-1.666 0.309-3.15 0.93-4.45 0.629-1.31 1.519-2.342 2.667-3.093 1.147-0.762 2.499-1.143 4.053-1.143 1.565 0 2.875 0.381 3.931 1.143 1.067 0.751 1.874 1.783 2.423 3.093s0.823 2.793 0.823 4.45c0 1.635-0.274 3.113-0.823 4.434-0.549 1.31-1.367 2.347-2.453 3.109s-2.434 1.143-4.038 1.143zM46.26 20.023c0.984 0 1.777-0.224 2.377-0.67 0.61-0.457 1.051-1.093 1.326-1.905 0.285-0.812 0.427-1.752 0.427-2.819 0-1.077-0.142-2.016-0.427-2.819-0.274-0.812-0.706-1.443-1.295-1.89-0.59-0.457-1.352-0.686-2.286-0.686-0.986 0-1.798 0.244-2.438 0.731-0.64 0.477-1.112 1.128-1.417 1.95-0.305 0.812-0.457 1.717-0.457 2.712 0 1.006 0.146 1.92 0.442 2.743 0.305 0.812 0.766 1.458 1.387 1.935s1.406 0.716 2.362 0.716zM58.182 22.857v-22.4h3.672v22.4h-3.672zM66.723 3.901v-3.368h3.672v3.368h-3.672zM66.723 22.857v-16.457h3.672v16.457h-3.672zM81.315 23.314c-2.031 0-3.683-0.457-4.952-1.371s-2.042-2.199-2.316-3.855l3.749-0.579c0.194 0.812 0.62 1.452 1.28 1.92s1.493 0.701 2.499 0.701c0.884 0 1.565-0.172 2.042-0.518 0.488-0.355 0.731-0.838 0.731-1.448 0-0.376-0.091-0.675-0.274-0.899-0.172-0.233-0.559-0.457-1.158-0.67s-1.519-0.483-2.758-0.808c-1.382-0.366-2.479-0.757-3.291-1.173-0.812-0.427-1.397-0.93-1.752-1.509s-0.533-1.28-0.533-2.103c0-1.026 0.27-1.92 0.808-2.682s1.291-1.346 2.255-1.752c0.965-0.416 2.103-0.625 3.413-0.625 1.28 0 2.412 0.198 3.398 0.594 0.995 0.396 1.798 0.96 2.408 1.691s0.986 1.589 1.128 2.575l-3.749 0.67c-0.091-0.701-0.411-1.254-0.96-1.661-0.538-0.407-1.26-0.635-2.164-0.686-0.864-0.050-1.559 0.081-2.088 0.396-0.529 0.305-0.792 0.736-0.792 1.295 0 0.315 0.107 0.584 0.32 0.808s0.64 0.446 1.28 0.67c0.651 0.224 1.615 0.498 2.895 0.823 1.31 0.335 2.357 0.721 3.139 1.158 0.792 0.427 1.361 0.94 1.707 1.539 0.355 0.599 0.533 1.326 0.533 2.179 0 1.656-0.605 2.956-1.813 3.901-1.199 0.945-2.86 1.417-4.983 1.417zM102.831 22.857v-7.924c0-0.518-0.035-1.093-0.107-1.722-0.077-0.672-0.255-1.285-0.518-1.85l0.015 0.037c-0.255-0.591-0.652-1.081-1.148-1.441l-0.010-0.007c-0.507-0.376-1.198-0.564-2.072-0.564-0.466 0-0.93 0.076-1.387 0.229s-0.873 0.416-1.25 0.792c-0.366 0.366-0.66 0.873-0.884 1.524-0.222 0.64-0.335 1.463-0.335 2.469l-2.179-0.93c0-1.402 0.27-2.671 0.808-3.81 0.549-1.138 1.352-2.042 2.408-2.712 1.058-0.681 2.357-1.021 3.901-1.021 1.219 0 2.225 0.203 3.017 0.61s1.423 0.925 1.89 1.554c0.468 0.629 0.814 1.3 1.036 2.011 0.224 0.712 0.366 1.387 0.427 2.027 0.072 0.629 0.107 1.143 0.107 1.539v9.189h-3.718zM91.418 22.857v-21.943h3.276v11.55h0.442v10.392h-3.718zM269.766 22.857v-3.764h3.764v3.764h-3.764z"></path>
            <path fill="#4dc274" style="fill: var(--color2, #4dc274)" d="M118.008 23.314c-1.666 0-3.128-0.361-4.389-1.082-1.25-0.718-2.255-1.738-2.936-2.963l-0.020-0.039c-0.701-1.28-1.051-2.754-1.051-4.419 0-1.798 0.344-3.357 1.036-4.678 0.69-1.33 1.65-2.362 2.88-3.093 1.228-0.731 2.651-1.097 4.267-1.097 1.707 0 3.154 0.401 4.343 1.204 1.198 0.792 2.088 1.915 2.667 3.368s0.797 3.165 0.655 5.135h-3.642v-1.341c-0.011-1.787-0.325-3.093-0.945-3.916s-1.595-1.234-2.926-1.234c-1.504 0-2.621 0.468-3.352 1.402-0.731 0.925-1.097 2.281-1.097 4.069 0 1.666 0.366 2.956 1.097 3.87s1.798 1.371 3.2 1.371c0.904 0 1.681-0.198 2.331-0.594 0.66-0.407 1.169-0.99 1.524-1.752l3.627 1.097c-0.629 1.483-1.605 2.636-2.926 3.459-1.31 0.823-2.758 1.234-4.343 1.234zM112.34 15.65v-2.773h11.322v2.773h-11.322zM126.435 22.857l6.019-8.32-5.897-8.137h4.328l3.703 5.257 3.642-5.257h4.328l-5.897 8.137 6.050 8.32h-4.328l-3.794-5.44-3.825 5.44h-4.328zM151.691 23.314c-1.696 0-3.144-0.376-4.343-1.128-1.19-0.762-2.132-1.816-2.739-3.064l-0.020-0.045c-0.629-1.31-0.949-2.793-0.96-4.45 0.011-1.687 0.34-3.18 0.99-4.48 0.641-1.286 1.598-2.331 2.772-3.060l0.032-0.018c1.208-0.751 2.647-1.128 4.312-1.128 1.87 0 3.448 0.472 4.739 1.417 1.3 0.934 2.149 2.214 2.545 3.84l-3.657 0.99c-0.285-0.884-0.757-1.57-1.417-2.057-0.606-0.466-1.376-0.747-2.212-0.747-0.015 0-0.031 0-0.046 0l0.002-0c-0.955 0-1.742 0.229-2.362 0.686-0.62 0.446-1.077 1.067-1.371 1.859s-0.442 1.691-0.442 2.697c0 1.565 0.35 2.83 1.051 3.794s1.742 1.448 3.124 1.448c0.975 0 1.742-0.224 2.301-0.67 0.568-0.446 0.995-1.093 1.28-1.935l3.749 0.838c-0.507 1.676-1.397 2.967-2.667 3.87-1.269 0.894-2.824 1.341-4.663 1.341zM169.109 23.314c-1.666 0-3.128-0.361-4.389-1.082-1.25-0.718-2.255-1.738-2.936-2.963l-0.020-0.039c-0.701-1.28-1.051-2.754-1.051-4.419 0-1.798 0.346-3.357 1.036-4.678 0.69-1.33 1.65-2.362 2.88-3.093s2.651-1.097 4.267-1.097c1.707 0 3.154 0.401 4.343 1.204 1.199 0.792 2.088 1.915 2.667 3.368s0.797 3.165 0.655 5.135h-3.642v-1.341c-0.011-1.787-0.325-3.093-0.945-3.916s-1.595-1.234-2.926-1.234c-1.504 0-2.621 0.468-3.352 1.402-0.731 0.925-1.097 2.281-1.097 4.069 0 1.666 0.366 2.956 1.097 3.87s1.798 1.371 3.2 1.371c0.904 0 1.681-0.198 2.331-0.594 0.66-0.407 1.169-0.99 1.524-1.752l3.627 1.097c-0.629 1.483-1.605 2.636-2.926 3.459-1.31 0.823-2.758 1.234-4.343 1.234zM163.441 15.65v-2.773h11.322v2.773h-11.322zM180.265 22.857v-22.4h3.672v22.4h-3.672zM188.808 22.857v-22.4h3.672v22.4h-3.672zM204.526 23.314c-1.666 0-3.128-0.361-4.389-1.082-1.25-0.718-2.255-1.738-2.936-2.963l-0.020-0.039c-0.701-1.28-1.051-2.754-1.051-4.419 0-1.798 0.346-3.357 1.036-4.678 0.69-1.33 1.65-2.362 2.88-3.093s2.651-1.097 4.267-1.097c1.707 0 3.154 0.401 4.343 1.204 1.199 0.792 2.088 1.915 2.667 3.368s0.797 3.165 0.655 5.135h-3.642v-1.341c-0.011-1.787-0.325-3.093-0.945-3.916s-1.595-1.234-2.926-1.234c-1.504 0-2.621 0.468-3.352 1.402-0.731 0.925-1.097 2.281-1.097 4.069 0 1.666 0.366 2.956 1.097 3.87s1.798 1.371 3.2 1.371c0.904 0 1.681-0.198 2.331-0.594 0.66-0.407 1.169-0.99 1.524-1.752l3.627 1.097c-0.629 1.483-1.605 2.636-2.926 3.459-1.31 0.823-2.758 1.234-4.343 1.234zM198.857 15.65v-2.773h11.322v2.773h-11.322zM226.313 22.857v-7.924c0-0.518-0.035-1.093-0.107-1.722-0.076-0.672-0.254-1.285-0.518-1.849l0.015 0.036c-0.255-0.592-0.651-1.081-1.148-1.441l-0.010-0.007c-0.507-0.376-1.198-0.564-2.072-0.564-0.466 0-0.93 0.076-1.387 0.229s-0.873 0.416-1.25 0.792c-0.366 0.366-0.66 0.873-0.884 1.524-0.222 0.64-0.335 1.463-0.335 2.469l-2.179-0.93c0-1.402 0.27-2.671 0.808-3.81 0.549-1.138 1.352-2.042 2.408-2.712 1.058-0.681 2.357-1.021 3.901-1.021 1.219 0 2.225 0.203 3.017 0.61s1.423 0.925 1.89 1.554c0.468 0.629 0.814 1.3 1.036 2.011 0.224 0.712 0.366 1.387 0.427 2.027 0.072 0.629 0.107 1.143 0.107 1.539v9.189h-3.718zM214.9 22.857v-16.457h3.276v5.105h0.442v11.352h-3.718zM240.887 23.314c-1.696 0-3.144-0.376-4.343-1.128-1.19-0.762-2.132-1.817-2.738-3.064l-0.020-0.045c-0.629-1.31-0.949-2.793-0.96-4.45 0.011-1.687 0.341-3.18 0.99-4.48 0.641-1.285 1.598-2.33 2.772-3.060l0.032-0.018c1.21-0.751 2.647-1.128 4.312-1.128 1.87 0 3.45 0.472 4.739 1.417 1.301 0.934 2.149 2.214 2.545 3.84l-3.657 0.99c-0.283-0.884-0.756-1.57-1.417-2.057-0.606-0.466-1.376-0.747-2.211-0.747-0.016 0-0.031 0-0.047 0l0.002-0c-0.954 0-1.742 0.229-2.362 0.686-0.619 0.446-1.076 1.067-1.371 1.859-0.294 0.792-0.442 1.691-0.442 2.697 0 1.565 0.35 2.83 1.051 3.794s1.743 1.448 3.124 1.448c0.975 0 1.743-0.224 2.301-0.67 0.57-0.446 0.997-1.093 1.28-1.935l3.749 0.838c-0.507 1.676-1.396 2.967-2.667 3.87-1.269 0.894-2.824 1.341-4.663 1.341zM258.306 23.314c-1.666 0-3.128-0.361-4.389-1.082-1.25-0.718-2.255-1.738-2.936-2.963l-0.020-0.039c-0.701-1.28-1.051-2.754-1.051-4.419 0-1.798 0.346-3.357 1.036-4.678 0.69-1.33 1.65-2.362 2.88-3.093s2.651-1.097 4.267-1.097c1.707 0 3.154 0.401 4.343 1.204 1.199 0.792 2.088 1.915 2.667 3.368s0.797 3.165 0.655 5.135h-3.642v-1.341c-0.011-1.787-0.325-3.093-0.945-3.916s-1.595-1.234-2.926-1.234c-1.504 0-2.621 0.468-3.352 1.402-0.731 0.925-1.097 2.281-1.097 4.069 0 1.666 0.366 2.956 1.097 3.87s1.798 1.371 3.2 1.371c0.904 0 1.681-0.198 2.331-0.594 0.66-0.407 1.169-0.99 1.524-1.752l3.627 1.097c-0.629 1.483-1.605 2.636-2.926 3.459-1.31 0.823-2.758 1.234-4.343 1.234zM252.637 15.65v-2.773h11.322v2.773h-11.322z"></path>
        </symbol>
        <symbol id="icon-arrow-down" viewBox="0 0 56 32">
            <path fill="#4dc274" style="fill: var(--color1, #4dc274)" d="M30.84 21.6c-0.372 0.375-0.814 0.673-1.302 0.876s-1.010 0.308-1.538 0.308c-0.528 0-1.051-0.105-1.538-0.308s-0.93-0.501-1.302-0.876l-18.32-18.36c-0.372-0.375-0.814-0.672-1.302-0.876s-1.010-0.308-1.538-0.308c-0.528 0-1.051 0.105-1.538 0.308s-0.93 0.501-1.302 0.876c-0.745 0.749-1.163 1.763-1.163 2.82s0.418 2.071 1.163 2.82l18.36 18.36c2.25 2.247 5.3 3.509 8.48 3.509s6.23-1.262 8.48-3.509l18.36-18.36c0.739-0.745 1.156-1.751 1.16-2.8 0.003-0.526-0.098-1.048-0.297-1.536s-0.492-0.931-0.863-1.304c-0.372-0.375-0.814-0.672-1.302-0.876s-1.010-0.308-1.538-0.308c-0.528 0-1.051 0.105-1.538 0.308s-0.93 0.501-1.302 0.876l-18.32 18.36z"></path>
        </symbol>
    </defs>
</svg>
